<?xml version="1.0" standalone="no"?>
<!DOCTYPE svg PUBLIC "-//W3C//DTD SVG 20010904//EN"
 "http://www.w3.org/TR/2001/REC-SVG-20010904/DTD/svg10.dtd">
<svg version="1.0" xmlns="http://www.w3.org/2000/svg"
 width="726.000000pt" height="717.000000pt" viewBox="0 0 726.000000 717.000000"
 preserveAspectRatio="xMidYMid meet">
<metadata>
Created by potrace 1.16, written by Peter Selinger 2001-2019
</metadata>
<g transform="translate(0.000000,717.000000) scale(0.100000,-0.100000)"
fill="current" stroke="none">
<path d="M3310 7119 c-485 -53 -953 -197 -1362 -419 -137 -75 -393 -244 -506
-335 -787 -635 -1259 -1548 -1314 -2542 -65 -1170 415 -2248 1324 -2974 496
-396 1149 -666 1788 -740 139 -16 675 -16 805 0 1359 168 2489 1079 2925 2358
104 303 158 576 181 908 54 782 -155 1559 -595 2210 -325 482 -757 868 -1276
1143 -357 189 -811 331 -1205 377 -151 17 -652 27 -765 14z m-1240 -1979 c64
-17 125 -64 150 -115 19 -40 22 -57 17 -118 -10 -131 -54 -209 -107 -192 -24
8 -25 26 -5 115 24 108 15 190 -26 231 -30 30 -102 26 -164 -10 -212 -122
-439 -496 -569 -936 -63 -217 -71 -270 -70 -485 0 -325 43 -470 136 -470 73 0
215 114 346 275 130 161 354 520 494 794 34 68 70 128 79 134 23 14 66 0 85
-28 14 -22 14 -36 -1 -165 -18 -156 -47 -341 -99 -620 -19 -101 -33 -186 -31
-188 2 -2 65 25 142 61 l138 64 7 89 c8 103 24 203 38 239 14 36 63 35 87 -2
16 -25 18 -64 21 -413 2 -212 8 -389 12 -394 12 -12 31 32 96 234 65 202 164
407 224 465 37 37 46 40 95 40 29 0 56 -3 60 -6 3 -4 -21 -32 -54 -64 -98 -94
-142 -189 -267 -590 -93 -298 -112 -339 -157 -361 -43 -20 -96 -13 -132 19
-37 32 -45 101 -45 400 0 176 -3 257 -11 257 -6 0 -69 -30 -140 -66 -86 -43
-133 -74 -139 -88 -4 -11 -36 -178 -70 -371 -87 -491 -140 -695 -230 -891 -97
-212 -248 -356 -396 -380 -158 -25 -274 137 -274 382 0 105 17 197 61 328 86
259 329 575 647 840 45 38 82 70 82 72 0 1 22 139 50 306 52 313 56 348 42
348 -16 0 -39 -33 -136 -196 -158 -266 -342 -496 -433 -543 -99 -50 -217 -63
-314 -35 -109 32 -150 89 -191 265 -32 138 -32 427 -1 585 58 285 193 616 344
843 128 191 294 332 419 355 32 6 145 -3 190 -14z m2575 -869 c22 -10 51 -31
65 -45 24 -26 25 -33 25 -154 0 -141 -13 -201 -51 -239 -38 -38 -59 -27 -57
27 11 287 7 340 -27 340 -59 0 -197 -306 -244 -541 -68 -340 -51 -774 29 -761
46 8 160 154 284 366 108 184 274 482 296 532 52 118 139 230 205 263 82 42
181 32 237 -24 30 -30 33 -38 33 -96 -1 -80 -30 -154 -92 -235 -63 -82 -114
-126 -202 -174 -83 -45 -78 -36 -91 -180 -7 -77 11 -305 28 -358 18 -56 48
-55 104 3 80 84 162 223 324 550 l158 320 16 150 c24 227 36 259 93 240 42
-13 46 -42 50 -447 2 -214 8 -388 13 -388 14 0 35 48 75 175 79 255 179 470
245 530 32 29 47 35 83 35 81 0 83 -7 19 -65 -98 -89 -151 -206 -269 -593 -74
-244 -106 -324 -142 -353 -28 -21 -73 -24 -122 -8 -54 19 -63 55 -69 284 l-6
200 -102 -205 c-229 -463 -311 -564 -460 -577 -72 -5 -116 15 -155 72 -44 63
-59 141 -65 332 -3 95 -9 170 -14 168 -4 -3 -24 -36 -45 -73 -208 -377 -324
-519 -433 -530 -157 -15 -232 83 -251 328 -9 119 2 390 20 465 5 22 7 42 4 44
-5 6 -309 -36 -357 -50 -52 -14 -52 -32 -1 -95 127 -156 158 -237 158 -419 1
-256 -80 -356 -277 -343 -98 7 -172 42 -246 115 -59 60 -103 137 -120 214 -16
66 -13 255 4 355 41 232 152 449 252 490 50 21 123 16 123 -8 0 -6 -16 -32
-35 -58 -49 -67 -111 -202 -134 -294 -28 -106 -45 -284 -36 -381 12 -147 41
-230 105 -299 72 -78 112 -81 164 -13 48 64 70 150 70 277 -1 159 -11 183
-157 383 -29 40 -45 71 -41 80 15 39 139 72 427 112 60 8 112 17 117 20 4 3
20 42 35 87 36 112 123 290 178 362 57 76 106 106 172 106 28 0 68 -9 90 -19z"/>
<path d="M1988 3051 c-116 -93 -209 -200 -318 -363 -113 -169 -177 -296 -216
-423 -25 -81 -28 -106 -28 -245 -1 -182 12 -235 72 -292 91 -88 149 -77 236
45 118 166 186 406 296 1051 23 131 40 250 38 264 -3 25 -5 24 -80 -37z"/>
<path d="M5284 4000 c-32 -13 -70 -64 -108 -143 -38 -81 -76 -197 -76 -233 0
-75 132 42 199 177 37 74 42 90 39 143 -3 64 -12 74 -54 56z"/>
</g>
</svg>
