<?xml version="1.0" standalone="no"?>
<!DOCTYPE svg PUBLIC "-//W3C//DTD SVG 20010904//EN"
 "http://www.w3.org/TR/2001/REC-SVG-20010904/DTD/svg10.dtd">
<svg version="1.0" xmlns="http://www.w3.org/2000/svg"
 width="1500.000000pt" height="1500.000000pt" viewBox="0 0 1500.000000 1500.000000"
 preserveAspectRatio="xMidYMid meet">

<g transform="translate(0.000000,1500.000000) scale(0.100000,-0.100000)"
fill="#000000" stroke="none">
<path d="M7215 11614 c-1136 -91 -2159 -612 -2872 -1464 -523 -624 -832 -1342
-940 -2185 -26 -201 -26 -731 0 -930 84 -651 282 -1213 608 -1730 598 -950
1560 -1616 2657 -1841 317 -65 458 -78 832 -79 374 0 506 13 832 79 937 192
1787 712 2382 1456 432 540 717 1165 842 1845 55 298 78 740 55 1035 -148
1880 -1504 3398 -3346 3750 -248 47 -398 61 -705 64 -162 2 -317 2 -345 0z
m-1522 -2324 c161 -64 208 -185 151 -390 -27 -96 -65 -131 -120 -110 -30 12
-30 22 0 165 32 156 -11 268 -102 267 -159 -2 -398 -256 -576 -610 -139 -277
-251 -621 -286 -879 -26 -190 2 -549 52 -664 43 -100 85 -114 187 -63 152 76
367 328 588 689 140 227 313 538 345 620 26 67 44 85 85 85 25 0 43 -8 64 -30
30 -29 30 -30 24 -117 -10 -137 -43 -371 -81 -573 -42 -219 -84 -451 -84 -462
0 -4 53 18 118 50 64 32 135 65 158 73 l41 16 7 94 c9 119 32 270 48 303 9 21
18 26 49 26 87 0 90 -23 89 -572 0 -235 3 -409 9 -412 11 -7 41 68 86 219 56
186 83 256 156 405 98 202 154 256 256 248 68 -6 88 -23 54 -46 -14 -10 -50
-42 -81 -72 -89 -89 -165 -263 -275 -630 -119 -397 -134 -434 -195 -465 -36
-19 -91 -19 -135 -1 -78 33 -89 98 -83 491 2 168 1 305 -3 305 -13 0 -329
-161 -329 -168 0 -15 -130 -741 -150 -837 -125 -607 -295 -937 -545 -1061
-139 -69 -256 -56 -341 38 -110 123 -146 375 -85 610 60 229 99 315 237 523
138 209 303 394 490 550 59 50 122 104 140 120 l33 30 60 364 c34 200 61 372
61 383 0 17 -2 18 -15 8 -19 -16 -105 -155 -176 -282 -100 -181 -335 -484
-429 -553 -171 -126 -466 -119 -566 12 -41 54 -62 111 -89 248 -68 344 -27
696 132 1119 190 505 466 867 727 953 65 20 228 11 299 -17z m3008 -1016 c77
-42 91 -71 97 -207 4 -93 1 -127 -17 -197 -26 -104 -46 -134 -93 -138 -52 -5
-59 11 -41 93 10 43 16 117 16 190 0 228 -45 233 -153 16 -139 -278 -198 -522
-215 -886 -10 -211 17 -427 59 -473 9 -10 20 -6 51 17 83 60 220 269 447 675
55 100 115 206 133 236 18 30 45 84 61 120 67 153 165 280 250 320 61 30 162
31 224 3 72 -32 93 -63 98 -137 8 -127 -48 -246 -180 -382 -64 -66 -94 -88
-158 -118 -43 -21 -83 -43 -89 -50 -48 -58 -31 -561 21 -613 23 -22 50 -9 106
52 104 113 207 291 405 700 l150 310 9 105 c13 163 36 311 53 337 19 28 63 31
95 5 36 -29 41 -99 40 -555 -1 -337 2 -418 12 -415 14 5 25 36 112 308 60 187
169 425 226 493 47 56 101 80 161 72 76 -11 85 -37 23 -68 -66 -34 -143 -154
-213 -329 -32 -81 -108 -320 -166 -522 -71 -245 -112 -306 -205 -306 -54 0
-115 24 -126 49 -25 62 -33 141 -34 326 l0 200 -98 -205 c-106 -221 -234 -456
-289 -532 -59 -81 -138 -146 -200 -164 -59 -17 -145 -14 -187 7 -104 54 -150
206 -151 504 l0 161 -98 -175 c-210 -373 -325 -515 -439 -540 -46 -11 -128 -3
-178 17 -66 26 -120 127 -146 272 -20 117 -14 476 10 605 9 44 16 82 16 84 0
11 -339 -37 -422 -60 -25 -6 -38 -16 -38 -27 0 -9 26 -47 58 -84 127 -147 172
-256 180 -435 5 -131 -5 -208 -40 -300 -40 -108 -105 -153 -230 -161 -243 -14
-451 153 -503 406 -53 260 40 689 192 886 61 80 104 109 167 114 67 5 106 -3
106 -24 0 -8 -18 -38 -39 -67 -126 -168 -195 -380 -208 -642 -13 -269 42 -447
166 -542 52 -40 70 -41 112 -6 73 62 128 252 114 396 -13 142 -50 223 -165
366 -44 54 -80 108 -80 118 0 28 37 58 95 78 61 20 289 59 443 76 63 7 115 17
117 23 59 227 191 491 293 589 78 74 181 86 283 31z"/>
<path d="M5565 6838 c-152 -128 -244 -232 -361 -409 -178 -270 -244 -411 -284
-608 -36 -178 -21 -382 36 -479 26 -45 91 -98 131 -108 40 -10 76 6 123 54
138 143 231 392 319 852 60 316 133 749 128 763 -1 5 -43 -24 -92 -65z"/>
<path d="M9395 7928 c-46 -40 -125 -200 -160 -325 -38 -133 -22 -146 74 -57
124 115 209 308 175 398 -10 26 -50 18 -89 -16z"/>
</g>
</svg>
